<svg xmlns="http://www.w3.org/2000/svg" version="1.1" xmlns:xlink="http://www.w3.org/1999/xlink" xmlns:svgjs="http://svgjs.dev/svgjs" width="2000" height="929" viewBox="0 0 2000 929"><g transform="matrix(1,0,0,1,-1.211925288210523,0.9981206064957178)"><svg viewBox="0 0 396 184" data-background-color="#046380" preserveAspectRatio="xMidYMid meet" height="929" width="2000" xmlns="http://www.w3.org/2000/svg" xmlns:xlink="http://www.w3.org/1999/xlink"><g id="tight-bounds" transform="matrix(1,0,0,1,0.2399612070656758,-0.1976901954738537)"><svg viewBox="0 0 395.52 184.3953803909477" height="184.3953803909477" width="395.52"><g><svg viewBox="0 0 395.52 184.3953803909477" height="184.3953803909477" width="395.52"><g transform="matrix(1,0,0,1,0,94.08406101190188)"><svg viewBox="0 0 395.52 90.31131937904581" height="90.31131937904581" width="395.52"><g id="textblocktransform"><svg viewBox="0 0 395.52 90.31131937904581" height="90.31131937904581" width="395.52" id="textblock"><g><svg viewBox="0 0 395.52 61.02783663092116" height="61.02783663092116" width="395.52"><g transform="matrix(1,0,0,1,0,0)"><svg width="395.52" viewBox="-0.5587859153747559 -22.27120018005371 400.8937072753906 61.85699462890625" height="61.02783663092116" data-palette-color="#ffffff"><path d="M22.984 6.371v0c-0.494 2.736-2.216 4.789-5.167 6.159-2.951 1.371-6.155 1.744-9.612 1.12v0c-2.703-0.488-4.882-1.478-6.536-2.968-1.656-1.485-2.388-2.755-2.198-3.812v0c0.764-1.19 2.021-2.392 3.771-3.607 1.75-1.215 3.255-1.743 4.513-1.583v0c0.761 0.51 1.367 1.547 1.816 3.112 0.45 1.558 0.719 3.317 0.805 5.277v0c1.791 0.249 2.862-0.598 3.212-2.54v0c0.232-1.286 0.03-2.945-0.605-4.976-0.635-2.039-1.383-3.969-2.247-5.792-0.857-1.821-1.595-3.811-2.214-5.968-0.614-2.15-0.788-3.966-0.52-5.449v0c0.441-2.441 1.923-4.232 4.446-5.376 2.517-1.144 5.153-1.468 7.908-0.97 2.749 0.496 4.784 1.477 6.104 2.941 1.314 1.463 1.832 2.969 1.552 4.518v0c-0.232 1.286-0.681 2.268-1.345 2.948-0.671 0.678-1.198 1.196-1.581 1.554-0.388 0.35-0.887 0.71-1.496 1.081v0c-1.145 0.674-2.016 1.164-2.613 1.469v0l-0.845 0.407c1.515 2.753 2.475 5.819 2.881 9.198v0c0.154 1.213 0.144 2.299-0.029 3.257zM23.994-13.913v0c0.28-1.548-0.568-2.501-2.543-2.857v0c-1.155-0.208-2.131-0.131-2.928 0.233-0.799 0.371-1.265 0.927-1.398 1.668-0.134 0.741 0.01 1.692 0.43 2.852 0.419 1.166 0.771 1.995 1.055 2.487v0c0.865-0.25 1.937-0.805 3.217-1.665 1.272-0.854 1.995-1.76 2.167-2.718zM28.42 16.882v0l-1.146-0.178c0.427-2.747 1.988-7.638 4.682-14.675 2.686-7.031 4.231-11.253 4.633-12.668 0.408-1.407 0.685-2.474 0.832-3.2v0c-3.119-0.418-5.674-0.323-7.665 0.284v0c-0.792-1.243-1.138-2.94-1.04-5.09v0c1.709-0.314 4.529-0.166 8.462 0.447v0l15.553 2.936c0.764 0.119 1.979 0.271 3.644 0.456v0c-0.033 1.081-0.107 1.987-0.221 2.718v0c-0.242 1.555-1.338 2.18-3.288 1.877v0c-0.599-0.093-1.519-0.338-2.76-0.733-1.24-0.402-2.338-0.694-3.294-0.877v0c-0.264 1.045-1.786 5.214-4.567 12.506-2.774 7.293-4.437 12.712-4.989 16.256v0c-1.589 0.63-4.534 0.61-8.836-0.059zM64.335 15.616v0c1.362 0.175 3.164-0.199 5.407-1.121v0c0.126-0.461 1.328-3.775 3.605-9.942 2.278-6.174 3.589-10.606 3.935-13.297v0c0.128-0.998 0.199-1.682 0.212-2.05v0c3.469-0.738 6.714-0.913 9.736-0.525v0c0.169 0.257 0.195 0.835 0.08 1.735v0c-0.255 1.99-1.672 6.534-4.25 13.63-2.584 7.095-3.958 11.281-4.122 12.557-0.165 1.283-0.012 1.954 0.458 2.015v0c0.298 0.038 1.221-0.062 2.77-0.3v0l0.684 2.921c-3.41 1.854-6.561 2.596-9.45 2.225v0c-1.362-0.175-2.424-0.698-3.186-1.568-0.768-0.878-1.168-1.978-1.2-3.3v0c-4.449 2.299-8.135 3.261-11.057 2.886v0c-1.891-0.243-3.375-0.964-4.451-2.164-1.083-1.201-1.508-2.707-1.275-4.519 0.233-1.812 1.425-5.446 3.577-10.904 2.153-5.464 3.417-9.657 3.792-12.579v0c0.072-0.562-0.021-1.199-0.279-1.911-0.266-0.706-0.538-1.282-0.817-1.728v0l-0.479-0.667 0.276-0.973c2.186-0.432 5.835-0.32 10.947 0.337v0c0.524 0.948 0.653 2.45 0.389 4.506-0.265 2.063-1.489 5.942-3.671 11.637-2.182 5.689-3.35 9.131-3.503 10.328v0c-0.213 1.66 0.411 2.583 1.872 2.771zM100.724 26.325v0c-2.237-0.211-4.297-0.841-6.179-1.889v0c-1.759 0.47-3.614 0.613-5.565 0.43-1.951-0.184-2.992-0.299-3.122-0.345v0c0.217-2.296 1.602-7.185 4.156-14.665 2.554-7.48 3.881-11.744 3.98-12.792 0.099-1.049-0.001-2.009-0.301-2.881-0.307-0.866-0.639-1.533-0.996-2.003v0l-0.5-0.66 0.257-1.131c0.991-0.141 2.958-0.226 5.9-0.256 2.949-0.023 5.488 0.066 7.619 0.267v0c5.137 0.485 8.847 1.903 11.129 4.254 2.283 2.352 3.204 5.86 2.764 10.526v0c-0.343 3.637-1.333 7.1-2.969 10.387-1.643 3.293-3.907 5.989-6.79 8.088-2.89 2.098-6.017 2.988-9.383 2.67zM106.344-5.979v0c-0.604-0.057-1.259-0.069-1.965-0.035v0c-0.282 1.922-1.55 6.282-3.806 13.08-2.255 6.798-3.69 11.464-4.304 13.998v0c0.576 0.356 1.279 0.573 2.108 0.651v0c1.765 0.167 3.417-0.484 4.956-1.954 1.531-1.469 2.779-3.367 3.741-5.693v0c1.893-4.736 3.027-9.086 3.401-13.048v0c0.227-2.403 0.028-4.129-0.596-5.179-0.624-1.05-1.802-1.657-3.535-1.82zM131.707 28.852v0c-4.211-0.271-7.364-1.833-9.459-4.687v0c-1.143-1.543-1.647-3.369-1.512-5.478v0c0.183-2.841 1.334-5.105 3.453-6.792 2.126-1.694 4.566-2.602 7.32-2.726v0c-4.132-1.408-6.078-3.968-5.84-7.681v0c0.184-2.867 1.565-5.067 4.142-6.598 2.584-1.531 5.452-2.195 8.606-1.992 3.16 0.203 5.749 1.024 7.768 2.463 2.025 1.44 2.969 3.227 2.832 5.363v0c-0.08 1.237-0.491 2.387-1.234 3.448v0l-0.385 0.527c-1.371-0.088-2.827-0.392-4.37-0.913-1.544-0.513-2.693-1.132-3.448-1.855v0l0.827-5.077c-0.484-0.265-0.979-0.414-1.484-0.446v0c-1.031-0.066-1.858 0.435-2.482 1.504-0.623 1.062-0.981 2.329-1.076 3.799-0.095 1.47-0.01 2.651 0.253 3.543 0.257 0.885 0.714 1.576 1.37 2.072 0.656 0.496 1.238 0.854 1.745 1.074 0.507 0.213 1.22 0.449 2.139 0.709v0l-0.586 2.888c-2.302-0.148-4.466 0.364-6.492 1.537-2.02 1.18-3.101 2.874-3.243 5.083v0c-0.101 1.57 0.328 2.747 1.286 3.529 0.958 0.783 2.13 1.219 3.513 1.308 1.384 0.089 2.867-0.17 4.449-0.776 1.582-0.6 2.959-1.4 4.133-2.4v0l2.11 2.401c-1.564 1.877-3.66 3.419-6.289 4.626-2.623 1.208-5.305 1.723-8.046 1.547zM148.747 29.506v0l-0.849-0.031c0.072-2.005 1.193-7.092 3.362-15.259 2.169-8.161 3.276-12.894 3.323-14.199v0c0.02-0.566-0.13-1.209-0.451-1.928-0.328-0.712-0.651-1.278-0.969-1.696v0l-0.487-0.668 0.196-0.993c2.097-0.632 5.721-0.855 10.871-0.669v0c0.56 1.294 0.812 2.744 0.754 4.35v0l-0.003 0.1c4.117-2.8 7.681-4.146 10.692-4.038v0c1.779 0.064 3.216 0.643 4.31 1.736 1.101 1.1 1.616 2.627 1.546 4.579-0.071 1.959-0.982 5.872-2.734 11.739-1.752 5.867-2.652 9.444-2.698 10.73-0.047 1.292 0.147 1.947 0.58 1.962v0c0.606 0.022 1.517-0.162 2.731-0.552v0l0.957 2.896c-3.359 2.12-6.444 3.13-9.256 3.029v0c-1.606-0.058-2.819-0.529-3.641-1.412-0.822-0.883-1.198-2.311-1.127-4.283 0.071-1.972 0.933-5.703 2.585-11.195 1.659-5.484 2.512-8.895 2.56-10.234v0c0.061-1.706-0.661-2.585-2.166-2.64v0c-1.106-0.04-2.79 0.587-5.051 1.88v0c-0.358 1.595-1.091 4.35-2.199 8.266v0c-2.47 8.924-3.754 14.774-3.855 17.552v0c-1.504 0.813-4.497 1.139-8.981 0.978zM187.558 30.699v0l-1.16-0.006c0.015-2.78 0.831-7.849 2.45-15.208 1.612-7.352 2.512-11.757 2.699-13.216 0.194-1.452 0.31-2.548 0.348-3.288v0c-3.147 0.05-5.66 0.524-7.538 1.421v0c-0.968-1.112-1.562-2.738-1.784-4.88v0c1.643-0.565 4.454-0.837 8.434-0.816v0l15.817 0.594c0.773 0.004 1.997-0.026 3.671-0.091v0c0.128 1.074 0.19 1.981 0.186 2.721v0c-0.008 1.573-0.999 2.355-2.973 2.344v0c-0.607-0.003-1.553-0.108-2.838-0.315-1.286-0.213-2.415-0.339-3.388-0.377v0c-0.106 1.073-0.992 5.422-2.659 13.046-1.66 7.625-2.5 13.23-2.518 16.817v0c-1.478 0.859-4.393 1.277-8.747 1.254zM214.58-6.361v0c3.047-0.031 4.58 0.924 4.599 2.864v0c0.01 0.973-0.472 2.822-1.444 5.545-0.979 2.717-1.896 5.019-2.751 6.908v0l-3.115-0.529 0.802-14.669c0.873-0.075 1.509-0.115 1.909-0.119zM243.06 20.443v0c0.081 2.779-1.18 5.143-3.784 7.094-2.604 1.95-5.662 2.977-9.174 3.08v0c-2.745 0.08-5.082-0.438-7.008-1.556-1.927-1.111-2.906-2.203-2.937-3.276v0c0.502-1.322 1.483-2.758 2.945-4.308 1.462-1.55 2.825-2.377 4.089-2.48v0c0.85 0.342 1.657 1.232 2.42 2.67 0.762 1.432 1.388 3.097 1.876 4.997v0c1.804-0.126 2.677-1.175 2.62-3.147v0c-0.038-1.306-0.578-2.888-1.62-4.745-1.042-1.864-2.173-3.598-3.393-5.203-1.214-1.605-2.347-3.4-3.399-5.383-1.045-1.977-1.589-3.718-1.634-5.225v0c-0.073-2.479 1.008-4.538 3.241-6.177 2.226-1.639 4.739-2.5 7.538-2.581 2.792-0.082 4.986 0.458 6.58 1.618 1.588 1.161 2.405 2.527 2.451 4.1v0c0.038 1.306-0.198 2.36-0.708 3.162-0.517 0.802-0.926 1.418-1.227 1.847-0.308 0.423-0.721 0.878-1.24 1.367v0c-0.981 0.896-1.732 1.555-2.253 1.976v0l-0.744 0.572c2.05 2.381 3.623 5.183 4.718 8.406v0c0.401 1.155 0.615 2.22 0.644 3.192zM239.863 0.388v0c-0.046-1.573-1.072-2.33-3.078-2.271v0c-1.173 0.034-2.112 0.312-2.817 0.833-0.705 0.527-1.046 1.168-1.024 1.921 0.022 0.753 0.358 1.654 1.009 2.702 0.651 1.055 1.166 1.793 1.546 2.215v0c0.795-0.423 1.729-1.188 2.804-2.293 1.068-1.098 1.588-2.134 1.56-3.107zM267.735 39.559v0c-1.903 0.124-3.526-0.181-4.869-0.916-1.337-0.735-2.058-1.904-2.163-3.507v0c-0.061-0.938 0.102-1.77 0.489-2.497 0.393-0.734 0.811-1.299 1.253-1.695 0.442-0.396 0.847-0.74 1.215-1.031 0.368-0.298 0.86-0.6 1.475-0.907 0.621-0.308 1.127-0.551 1.515-0.73 0.39-0.172 0.921-0.381 1.593-0.625 0.672-0.244 1.155-0.419 1.449-0.525 0.294-0.106 0.756-0.246 1.386-0.421 0.623-0.174 0.967-0.28 1.031-0.318v0c0.134-0.51 0.266-1.103 0.396-1.779v0c-1.376 0.524-2.682 0.826-3.92 0.906v0c-2.974 0.193-5.594-0.752-7.86-2.835-2.267-2.084-3.535-5.198-3.805-9.343v0c-0.219-3.373 0.291-6.62 1.531-9.74 1.24-3.114 3.191-5.739 5.851-7.877 2.667-2.138 5.653-3.314 8.96-3.529 3.306-0.215 6.087 0.369 8.341 1.752 2.254 1.377 3.457 3.236 3.61 5.578v0c0.07 1.071-0.138 2.24-0.624 3.508v0c-0.468 0.097-1.068 0.17-1.8 0.217v0c-3.14 0.204-5.585-0.255-7.334-1.377v0l-0.356-5.468c-0.567-0.397-1.266-0.569-2.098-0.515v0c-2.009 0.131-3.635 1.73-4.879 4.797-1.243 3.067-1.727 6.723-1.451 10.967v0c0.38 5.848 2.091 8.673 5.131 8.475v0c1.743-0.113 3.341-1.126 4.793-3.038 1.453-1.905 2.506-4.255 3.159-7.05v0l3.346 0.294c-0.334 9.348-1.841 16.481-4.52 21.398-2.686 4.925-6.301 7.535-10.845 7.831zM264.812 34.057v0c0.022 0.339 0.174 0.623 0.456 0.852 0.283 0.235 0.677 0.337 1.182 0.304v0c1.903-0.124 3.49-1.754 4.763-4.889v0l0.04-0.153c-2.187 0.476-3.819 1.06-4.896 1.751-1.077 0.691-1.592 1.403-1.545 2.135zM301.166 19.58v0c1.367-0.13 3.042-0.893 5.026-2.288v0c0.021-0.478 0.461-3.975 1.32-10.492 0.858-6.524 1.158-11.137 0.901-13.838v0c-0.096-1.002-0.177-1.684-0.246-2.046v0c3.22-1.486 6.347-2.373 9.38-2.662v0c0.221 0.213 0.375 0.771 0.461 1.673v0c0.19 1.998-0.188 6.742-1.134 14.232-0.953 7.491-1.369 11.877-1.247 13.158 0.123 1.287 0.42 1.909 0.891 1.864v0c0.299-0.028 1.177-0.33 2.636-0.904v0l1.312 2.697c-2.917 2.562-5.825 3.981-8.725 4.258v0c-1.367 0.13-2.518-0.145-3.454-0.826-0.943-0.687-1.576-1.671-1.899-2.953v0c-3.831 3.225-7.213 4.977-10.147 5.256v0c-1.898 0.181-3.504-0.195-4.819-1.127-1.321-0.932-2.068-2.307-2.242-4.126-0.173-1.818 0.187-5.626 1.081-11.424 0.893-5.804 1.2-10.173 0.92-13.107v0c-0.054-0.564-0.285-1.165-0.694-1.802-0.415-0.63-0.808-1.132-1.178-1.505v0l-0.615-0.544 0.055-1.01c2.037-0.904 5.62-1.601 10.75-2.09v0c0.72 0.809 1.178 2.245 1.375 4.309 0.197 2.071-0.139 6.124-1.01 12.161-0.872 6.03-1.25 9.646-1.136 10.847v0c0.159 1.666 0.972 2.429 2.438 2.289zM333.409 15.773v0c0.113 0.933 0.388 1.373 0.825 1.32v0c0.728-0.088 1.599-0.412 2.612-0.972v0l1.43 2.657c-2.784 2.628-5.605 4.115-8.464 4.462v0c-1.661 0.202-3.039-0.111-4.133-0.939-1.094-0.828-1.746-2.105-1.956-3.832-0.21-1.727 0.163-5.745 1.117-12.052 0.955-6.301 1.37-10.659 1.244-13.075v0c-0.068-0.563-0.325-1.156-0.77-1.781-0.444-0.618-0.856-1.108-1.236-1.471v0l-0.628-0.529-0.011-1.005c2.006-0.955 5.667-1.755 10.98-2.4v0c0.657 0.934 1.055 1.967 1.192 3.099v0c0.234 1.926-0.147 6.236-1.141 12.931-0.993 6.702-1.347 11.231-1.061 13.587zM357.18 19.464v0c-2.223 0.326-4.373 0.204-6.452-0.367v0c-1.597 0.874-3.365 1.454-5.303 1.738-1.939 0.285-2.977 0.42-3.114 0.406v0c-0.335-2.282-0.15-7.36 0.554-15.231 0.704-7.872 0.98-12.33 0.827-13.372-0.153-1.042-0.478-1.951-0.976-2.727-0.504-0.768-0.985-1.338-1.444-1.709v0l-0.642-0.522-0.019-1.16c0.929-0.372 2.819-0.922 5.671-1.651 2.859-0.723 5.347-1.239 7.464-1.55v0c5.105-0.749 9.046-0.253 11.821 1.49 2.776 1.742 4.504 4.932 5.184 9.568v0c0.53 3.615 0.391 7.213-0.417 10.795-0.814 3.59-2.372 6.746-4.674 9.469-2.309 2.724-5.136 4.332-8.48 4.823zM354.967-13.252v0c-0.6 0.088-1.239 0.232-1.918 0.433v0c0.183 1.934-0.014 6.471-0.59 13.61-0.576 7.139-0.862 12.012-0.857 14.62v0c0.644 0.209 1.378 0.253 2.203 0.131v0c1.755-0.257 3.204-1.282 4.35-3.074 1.139-1.791 1.899-3.931 2.282-6.419v0c0.714-5.051 0.782-9.545 0.204-13.483v0c-0.35-2.388-0.953-4.017-1.809-4.889-0.856-0.872-2.144-1.181-3.865-0.929zM387.876 14.559v0c-4.155 0.737-7.589-0.031-10.301-2.305v0c-1.477-1.227-2.4-2.882-2.77-4.963v0c-0.497-2.803 0.083-5.276 1.741-7.418 1.663-2.15 3.818-3.613 6.463-4.387v0c-4.348-0.386-6.847-2.411-7.497-6.073v0c-0.502-2.829 0.317-5.293 2.456-7.393 2.146-2.101 4.775-3.427 7.887-3.979 3.118-0.553 5.828-0.371 8.13 0.548 2.309 0.917 3.651 2.43 4.025 4.536v0c0.217 1.221 0.09 2.435-0.38 3.643v0l-0.248 0.602c-1.352 0.24-2.84 0.291-4.462 0.152-1.621-0.132-2.885-0.46-3.79-0.983v0l-0.402-5.128c-0.533-0.142-1.049-0.169-1.548-0.081v0c-1.017 0.181-1.702 0.864-2.054 2.05-0.353 1.18-0.4 2.495-0.143 3.946 0.257 1.451 0.62 2.578 1.088 3.382 0.46 0.799 1.068 1.361 1.823 1.687 0.755 0.326 1.405 0.536 1.95 0.629 0.543 0.086 1.292 0.146 2.246 0.181v0l0.116 2.945c-2.271 0.403-4.252 1.415-5.941 3.034-1.682 1.626-2.329 3.528-1.943 5.707v0c0.275 1.549 0.971 2.59 2.088 3.124 1.117 0.533 2.358 0.678 3.723 0.436 1.365-0.242 2.744-0.846 4.138-1.811 1.394-0.958 2.542-2.063 3.444-3.312v0l2.62 1.83c-1.073 2.195-2.743 4.19-5.011 5.988-2.261 1.796-4.744 2.934-7.448 3.413z" opacity="1" transform="matrix(1,0,0,1,0,0)" fill="#000000" class="wordmark-text-0" data-fill-palette-color="primary" id="text-0"></path></svg></g></svg></g><g transform="matrix(1,0,0,1,118.31980799999998,79.89154479520151)"><svg viewBox="0 0 158.88038400000002 10.419774583844307" height="10.419774583844307" width="158.88038400000002"><g transform="matrix(1,0,0,1,0,0)"><svg width="158.88038400000002" viewBox="0.699999988079071 -36.400001525878906 562.5899658203125 36.900001525878906" height="10.419774583844307" data-palette-color="#ffffff"><path d="M31.55-5.35L39.9-34.3 42.4-34.3 32.4 0 30.1 0 21.65-29.05 21.45-29.05 13 0 10.7 0 0.7-34.3 3.6-34.3 11.95-5.35 12.15-5.35 20.5-34.3 23-34.3 31.35-5.35 31.55-5.35ZM67.75-9.45Q67.75-6.35 66.42-4.1 65.1-1.85 62.85-0.68 60.6 0.5 57.8 0.5L57.8 0.5Q54.65 0.5 52.22-1.03 49.8-2.55 48.45-5.45 47.1-8.35 47.1-12.4L47.1-12.4 47.1-13.15Q47.1-17.2 48.42-20.1 49.75-23 52.17-24.53 54.6-26.05 57.75-26.05L57.75-26.05Q60.6-26.05 62.87-24.83 65.15-23.6 66.45-21.28 67.75-18.95 67.75-15.7L67.75-15.7 67.75-12.5 49.65-12.5 49.65-12.1Q49.65-7.1 51.92-4.45 54.2-1.8 57.8-1.8L57.8-1.8Q61-1.8 63.12-3.75 65.25-5.7 65.25-9.45L65.25-9.45 67.75-9.45ZM57.75-23.75Q54.4-23.75 52.2-21.45 50-19.15 49.7-14.8L49.7-14.8 65.25-14.8 65.25-15.7Q65.25-19.6 63.12-21.68 61-23.75 57.75-23.75L57.75-23.75ZM91.24-22Q92.49-23.9 94.62-24.98 96.74-26.05 99.39-26.05L99.39-26.05Q102.24-26.05 104.54-24.6 106.84-23.15 108.19-20.33 109.54-17.5 109.54-13.55L109.54-13.55 109.54-13Q109.54-6.25 106.72-2.88 103.89 0.5 99.39 0.5L99.39 0.5Q93.49 0.5 90.69-4.25L90.69-4.25 89.74 0 88.69 0 88.69-36 91.24-36 91.24-22ZM91.19-12.85Q91.19-6.95 93.37-4.38 95.54-1.8 99.14-1.8L99.14-1.8Q102.69-1.8 104.84-4.42 106.99-7.05 106.99-12.9L106.99-12.9 106.99-13.45Q106.99-18.55 104.79-21.15 102.59-23.75 99.14-23.75L99.14-23.75Q95.64-23.75 93.42-21.18 91.19-18.6 91.19-13.45L91.19-13.45 91.19-12.85ZM135.19-3.8Q133.89-1.8 131.69-0.65 129.49 0.5 126.94 0.5L126.94 0.5Q122.74 0.5 120.17-1.9 117.59-4.3 117.59-9.1L117.59-9.1 117.59-25.55 120.14-25.55 120.14-9.85Q120.14-5.8 122.02-3.8 123.89-1.8 127.34-1.8L127.34-1.8Q129.54-1.8 131.34-2.85 133.14-3.9 134.17-5.75 135.19-7.6 135.19-9.85L135.19-9.85 135.19-25.55 137.74-25.55 137.74-3.45Q137.74-1.8 139.09-1.8L139.09-1.8Q140.24-1.8 141.59-2.6L141.59-2.6 141.59-0.45Q140.19 0.5 138.39 0.5L138.39 0.5Q136.69 0.5 135.94-0.78 135.19-2.05 135.19-3.8L135.19-3.8ZM148.64-33.3L148.64-36 151.59-36 151.59-33.3 148.64-33.3ZM151.39 0L148.84 0 148.84-25.55 151.39-25.55 151.39 0ZM164.49 0L161.94 0 161.94-36 164.49-36 164.49 0ZM192.18-3.85Q189.38 0.5 183.73 0.5L183.73 0.5Q179.23 0.5 176.41-2.88 173.58-6.25 173.58-13L173.58-13 173.58-13.55Q173.58-17.5 174.93-20.33 176.28-23.15 178.58-24.6 180.88-26.05 183.73-26.05L183.73-26.05Q186.38-26.05 188.51-24.98 190.63-23.9 191.88-22L191.88-22 191.88-36 194.43-36 194.43 0 192.73 0 192.18-3.85ZM191.93-13.45Q191.93-18.6 189.71-21.18 187.48-23.75 183.98-23.75L183.98-23.75Q180.53-23.75 178.33-21.15 176.13-18.55 176.13-13.45L176.13-13.45 176.13-12.9Q176.13-7.05 178.28-4.42 180.43-1.8 183.98-1.8L183.98-1.8Q187.58-1.8 189.76-4.38 191.93-6.95 191.93-12.85L191.93-12.85 191.93-13.45ZM225.98-33.3Q225.33-33.6 224.38-33.85 223.43-34.1 222.88-34.1L222.88-34.1Q221.58-34.1 220.8-33.43 220.03-32.75 220.03-30.75L220.03-30.75 220.03-25.55 225.98-25.55 225.98-23.25 220.03-23.25 220.03 0 217.48 0 217.48-23.25 214.68-23.25 214.68-25.55 217.48-25.55 217.48-30.85Q217.48-33.65 218.88-35.02 220.28-36.4 222.58-36.4L222.58-36.4Q223.48-36.4 224.4-36.18 225.33-35.95 225.98-35.55L225.98-35.55 225.98-33.3ZM250.73-3.8Q249.43-1.8 247.23-0.65 245.03 0.5 242.48 0.5L242.48 0.5Q238.28 0.5 235.7-1.9 233.13-4.3 233.13-9.1L233.13-9.1 233.13-25.55 235.68-25.55 235.68-9.85Q235.68-5.8 237.55-3.8 239.43-1.8 242.88-1.8L242.88-1.8Q245.08-1.8 246.88-2.85 248.68-3.9 249.7-5.75 250.73-7.6 250.73-9.85L250.73-9.85 250.73-25.55 253.28-25.55 253.28-3.45Q253.28-1.8 254.63-1.8L254.63-1.8Q255.78-1.8 257.13-2.6L257.13-2.6 257.13-0.45Q255.73 0.5 253.93 0.5L253.93 0.5Q252.23 0.5 251.48-0.78 250.73-2.05 250.73-3.8L250.73-3.8ZM273.32-0.35Q272.67 0.05 271.75 0.28 270.82 0.5 269.92 0.5L269.92 0.5Q267.62 0.5 266.22-0.9 264.82-2.3 264.82-5.05L264.82-5.05 264.82-23.25 262.02-23.25 262.02-25.55 264.82-25.55 265.72-33.7 267.37-33.7 267.37-25.55 273.32-25.55 273.32-23.25 267.37-23.25 267.37-5.15Q267.37-3.15 268.15-2.48 268.92-1.8 270.22-1.8L270.22-1.8Q270.77-1.8 271.72-2.05 272.67-2.3 273.32-2.6L273.32-2.6 273.32-0.35ZM298.67-3.8Q297.37-1.8 295.17-0.65 292.97 0.5 290.42 0.5L290.42 0.5Q286.22 0.5 283.65-1.9 281.07-4.3 281.07-9.1L281.07-9.1 281.07-25.55 283.62-25.55 283.62-9.85Q283.62-5.8 285.5-3.8 287.37-1.8 290.82-1.8L290.82-1.8Q293.02-1.8 294.82-2.85 296.62-3.9 297.65-5.75 298.67-7.6 298.67-9.85L298.67-9.85 298.67-25.55 301.22-25.55 301.22-3.45Q301.22-1.8 302.57-1.8L302.57-1.8Q303.72-1.8 305.07-2.6L305.07-2.6 305.07-0.45Q303.67 0.5 301.87 0.5L301.87 0.5Q300.17 0.5 299.42-0.78 298.67-2.05 298.67-3.8L298.67-3.8ZM327.47-16.4L327.47-17.2Q327.47-19.7 326.02-21.73 324.57-23.75 321.22-23.75L321.22-23.75Q318.92-23.75 317.47-22.53 316.02-21.3 315.39-19.55 314.77-17.8 314.77-16.2L314.77-16.2 314.77 0 312.22 0 312.22-25.55 313.92-25.55 314.47-21.75Q314.47-21.95 315.24-23.05 316.02-24.15 317.64-25.1 319.27-26.05 321.72-26.05L321.72-26.05Q325.67-26.05 327.79-23.63 329.92-21.2 329.92-17.6L329.92-17.6Q329.92-17.1 329.87-16.8 329.82-16.5 329.82-16.4L329.82-16.4 327.47-16.4ZM355.77-9.45Q355.77-6.35 354.44-4.1 353.12-1.85 350.87-0.68 348.62 0.5 345.82 0.5L345.82 0.5Q342.67 0.5 340.24-1.03 337.82-2.55 336.47-5.45 335.12-8.35 335.12-12.4L335.12-12.4 335.12-13.15Q335.12-17.2 336.44-20.1 337.77-23 340.19-24.53 342.62-26.05 345.77-26.05L345.77-26.05Q348.62-26.05 350.89-24.83 353.17-23.6 354.47-21.28 355.77-18.95 355.77-15.7L355.77-15.7 355.77-12.5 337.67-12.5 337.67-12.1Q337.67-7.1 339.94-4.45 342.22-1.8 345.82-1.8L345.82-1.8Q349.02-1.8 351.14-3.75 353.27-5.7 353.27-9.45L353.27-9.45 355.77-9.45ZM345.77-23.75Q342.42-23.75 340.22-21.45 338.02-19.15 337.72-14.8L337.72-14.8 353.27-14.8 353.27-15.7Q353.27-19.6 351.14-21.68 349.02-23.75 345.77-23.75L345.77-23.75ZM379.26-22Q380.51-23.9 382.64-24.98 384.76-26.05 387.41-26.05L387.41-26.05Q390.26-26.05 392.56-24.6 394.86-23.15 396.21-20.33 397.56-17.5 397.56-13.55L397.56-13.55 397.56-13Q397.56-6.25 394.74-2.88 391.91 0.5 387.41 0.5L387.41 0.5Q381.51 0.5 378.71-4.25L378.71-4.25 377.76 0 376.71 0 376.71-36 379.26-36 379.26-22ZM379.21-12.85Q379.21-6.95 381.39-4.38 383.56-1.8 387.16-1.8L387.16-1.8Q390.71-1.8 392.86-4.42 395.01-7.05 395.01-12.9L395.01-12.9 395.01-13.45Q395.01-18.55 392.81-21.15 390.61-23.75 387.16-23.75L387.16-23.75Q383.66-23.75 381.44-21.18 379.21-18.6 379.21-13.45L379.21-13.45 379.21-12.85ZM423.21-3.8Q421.91-1.8 419.71-0.65 417.51 0.5 414.96 0.5L414.96 0.5Q410.76 0.5 408.18-1.9 405.61-4.3 405.61-9.1L405.61-9.1 405.61-25.55 408.16-25.55 408.16-9.85Q408.16-5.8 410.03-3.8 411.91-1.8 415.36-1.8L415.36-1.8Q417.56-1.8 419.36-2.85 421.16-3.9 422.18-5.75 423.21-7.6 423.21-9.85L423.21-9.85 423.21-25.55 425.76-25.55 425.76-3.45Q425.76-1.8 427.11-1.8L427.11-1.8Q428.26-1.8 429.61-2.6L429.61-2.6 429.61-0.45Q428.21 0.5 426.41 0.5L426.41 0.5Q424.71 0.5 423.96-0.78 423.21-2.05 423.21-3.8L423.21-3.8ZM436.66-33.3L436.66-36 439.61-36 439.61-33.3 436.66-33.3ZM439.41 0L436.86 0 436.86-25.55 439.41-25.55 439.41 0ZM452.5 0L449.95 0 449.95-36 452.5-36 452.5 0ZM480.2-3.85Q477.4 0.5 471.75 0.5L471.75 0.5Q467.25 0.5 464.43-2.88 461.6-6.25 461.6-13L461.6-13 461.6-13.55Q461.6-17.5 462.95-20.33 464.3-23.15 466.6-24.6 468.9-26.05 471.75-26.05L471.75-26.05Q474.4-26.05 476.52-24.98 478.65-23.9 479.9-22L479.9-22 479.9-36 482.45-36 482.45 0 480.75 0 480.2-3.85ZM479.95-13.45Q479.95-18.6 477.73-21.18 475.5-23.75 472-23.75L472-23.75Q468.55-23.75 466.35-21.15 464.15-18.55 464.15-13.45L464.15-13.45 464.15-12.9Q464.15-7.05 466.3-4.42 468.45-1.8 472-1.8L472-1.8Q475.6-1.8 477.77-4.38 479.95-6.95 479.95-12.85L479.95-12.85 479.95-13.45ZM511.35-9.45Q511.35-6.35 510.02-4.1 508.7-1.85 506.45-0.68 504.2 0.5 501.4 0.5L501.4 0.5Q498.25 0.5 495.82-1.03 493.4-2.55 492.05-5.45 490.7-8.35 490.7-12.4L490.7-12.4 490.7-13.15Q490.7-17.2 492.02-20.1 493.35-23 495.77-24.53 498.2-26.05 501.35-26.05L501.35-26.05Q504.2-26.05 506.47-24.83 508.75-23.6 510.05-21.28 511.35-18.95 511.35-15.7L511.35-15.7 511.35-12.5 493.25-12.5 493.25-12.1Q493.25-7.1 495.52-4.45 497.8-1.8 501.4-1.8L501.4-1.8Q504.6-1.8 506.72-3.75 508.85-5.7 508.85-9.45L508.85-9.45 511.35-9.45ZM501.35-23.75Q498-23.75 495.8-21.45 493.6-19.15 493.3-14.8L493.3-14.8 508.85-14.8 508.85-15.7Q508.85-19.6 506.72-21.68 504.6-23.75 501.35-23.75L501.35-23.75ZM535.34-16.4L535.34-17.2Q535.34-19.7 533.89-21.73 532.44-23.75 529.09-23.75L529.09-23.75Q526.79-23.75 525.34-22.53 523.89-21.3 523.27-19.55 522.64-17.8 522.64-16.2L522.64-16.2 522.64 0 520.09 0 520.09-25.55 521.79-25.55 522.34-21.75Q522.34-21.95 523.12-23.05 523.89-24.15 525.52-25.1 527.14-26.05 529.59-26.05L529.59-26.05Q533.54-26.05 535.67-23.63 537.79-21.2 537.79-17.6L537.79-17.6Q537.79-17.1 537.74-16.8 537.69-16.5 537.69-16.4L537.69-16.4 535.34-16.4ZM545.24-7.85Q545.19-7.6 545.19-7.15L545.19-7.15Q545.19-4.6 547.42-3.2 549.64-1.8 553.49-1.8L553.49-1.8Q556.94-1.8 558.84-3.18 560.74-4.55 560.74-6.8L560.74-6.8Q560.74-8.55 559.67-9.55 558.59-10.55 557.02-11.08 555.44-11.6 552.79-12.1L552.79-12.1Q549.74-12.7 547.89-13.33 546.04-13.95 544.74-15.3 543.44-16.65 543.44-19.05L543.44-19.05Q543.44-22.15 545.94-24.1 548.44-26.05 553.34-26.05L553.34-26.05Q556.54-26.05 558.64-25 560.74-23.95 561.72-22.38 562.69-20.8 562.69-19.15L562.69-19.15 562.64-18.45 560.14-18.45 560.14-19.1Q560.14-20.7 558.72-22.23 557.29-23.75 552.89-23.75L552.89-23.75Q548.64-23.75 547.32-22.3 545.99-20.85 545.99-19.15L545.99-19.15Q545.99-17.7 546.99-16.8 547.99-15.9 549.49-15.43 550.99-14.95 553.64-14.4L553.64-14.4Q556.69-13.75 558.64-13.1 560.59-12.45 561.94-11.05 563.29-9.65 563.29-7.3L563.29-7.3Q563.29-3.2 560.47-1.35 557.64 0.5 552.84 0.5L552.84 0.5Q549.19 0.5 546.92-0.65 544.64-1.8 543.67-3.45 542.69-5.1 542.69-6.6L542.69-6.6Q542.69-7.2 542.72-7.5 542.74-7.8 542.74-7.85L542.74-7.85 545.24-7.85Z" opacity="1" transform="matrix(1,0,0,1,0,0)" fill="#000000" class="slogan-text-1" data-fill-palette-color="secondary" id="text-1"></path></svg></g></svg></g></svg></g></svg></g><g transform="matrix(1,0,0,1,151.95036176405785,0)"><svg viewBox="0 0 91.61927647188429 90.31131937904581" height="90.31131937904581" width="91.61927647188429"><g><svg xmlns="http://www.w3.org/2000/svg" xmlns:xlink="http://www.w3.org/1999/xlink" version="1.1" x="0" y="0" viewBox="13.994998931884766 14.508999824523926 72.010009765625 70.98199462890625" enable-background="new 0 0 100 100" xml:space="preserve" height="90.31131937904581" width="91.61927647188429" class="icon-icon-0" data-fill-palette-color="accent" id="icon-0"><g fill="#ffffff" data-fill-palette-color="accent"><path fill="#000000" d="M85.133 50.899H38.289c-0.569 0-1.041 0.451-1.041 1.156v0.106c0 0.706 0.472 1.237 1.041 1.237h1.209v2.5 10.882 18.623h1.75v-11.18V55.926v-2.526h40.505v32.005h1.752V53.399h1.627c0.568 0 0.873-0.531 0.873-1.237v-0.106C86.006 51.351 85.701 50.899 85.133 50.899z" data-fill-palette-color="accent"></path><path fill="#000000" d="M46.49 59.233c-0.448-1.904-2.133-3.26-4.089-3.29l-0.402-0.006v21.478l1.125 4.785c0.462 1.966 2.214 3.291 4.15 3.291 0.323 0 0.651-0.037 0.979-0.114 2.294-0.539 3.717-2.836 3.176-5.13L46.49 59.233z" data-fill-palette-color="accent"></path><path fill="#000000" d="M33.864 65.401h-16.42c-0.274-28.004-0.994-33.693-0.994-33.693l0.045-0.062h-2.5v53.508h3.546c0-5.751-0.023-11.001-0.062-15.752h16.269v16.002h3.5V65.366l-0.225 0.035H33.864z" data-fill-palette-color="accent"></path><circle fill="#000000" cx="25.437" cy="21.042" r="6.5" data-fill-palette-color="accent"></circle><path fill="#000000" d="M32.7 47.185l0.575 0.657C33.977 48.646 34.991 49 36.057 49c0.021 0 0.043 0 0.065 0l15.801-0.173c2.039-0.036 3.66-1.611 3.625-3.648-0.037-2.037-1.717-3.664-3.754-3.625L37.71 41.8l-5.01-5.755v-2.566c0 0-0.141-4.888-7.14-4.888s-6.86 5.02-6.86 5.02v23.162 2.719c-0.012 0.121-0.04 0.236-0.042 0.36-0.036 2.355 1.845 4.295 4.202 4.33l15.888 0.241v-8.534L32.7 55.797V47.185z" data-fill-palette-color="accent"></path></g></svg></g></svg></g><g></g></svg></g><defs></defs></svg><rect width="395.52" height="184.3953803909477" fill="none" stroke="none" visibility="hidden"></rect></g></svg></g></svg>